<svg width="760" height="601" viewBox="0 0 760 601" fill="none" xmlns="http://www.w3.org/2000/svg">
<g filter="url(#filter0_d)">
<path d="M29.9796 145C44.9985 145 60.0023 145.163 74.9911 145.49C89.9798 145.817 104.976 146.32 119.98 146.999C134.974 147.753 149.967 148.666 164.931 150.167C172.413 150.922 179.887 151.819 187.339 153.072C191.065 153.698 194.783 154.414 198.486 155.335C200.334 155.795 202.182 156.308 204.022 156.919C205.904 157.515 207.731 158.272 209.483 159.182C210.439 159.699 211.335 160.321 212.152 161.038C213.15 161.873 213.87 162.991 214.219 164.244C214.309 164.604 214.355 164.974 214.355 165.345C214.355 165.632 214.355 165.903 214.355 166.19C214.316 166.744 214.235 167.293 214.113 167.835C213.872 168.896 213.497 169.923 212.997 170.89C212.024 172.707 210.784 174.368 209.317 175.816C207.927 177.209 206.432 178.493 204.844 179.655C201.722 181.905 198.449 183.937 195.047 185.736C191.706 187.554 188.319 189.228 184.91 190.843C171.274 197.277 157.314 202.784 144.183 209.702C140.902 211.437 137.689 213.255 134.612 215.246C131.55 217.178 128.676 219.393 126.029 221.862C123.472 224.306 121.277 227.142 120.206 230.16C119.674 231.672 119.445 233.274 119.535 234.875C119.535 235.267 119.603 235.629 119.663 236.059C119.714 236.365 119.795 236.666 119.905 236.957C120.163 237.577 120.534 238.145 120.998 238.631C122.147 239.77 123.487 240.697 124.958 241.37C126.547 242.131 128.191 242.774 129.875 243.293C133.359 244.355 136.909 245.184 140.502 245.775C147.773 247.02 155.194 247.729 162.623 248.264C177.496 249.298 192.467 249.592 207.431 249.773C222.395 249.954 237.381 249.773 252.375 249.705C282.355 249.479 312.357 249.102 342.398 249.554C357.422 249.781 372.446 250.218 387.477 251.063C402.561 251.849 417.595 253.41 432.519 255.74C440.058 256.942 447.513 258.628 454.836 260.787C458.559 261.901 462.207 263.254 465.757 264.838C469.44 266.444 472.906 268.507 476.074 270.978C479.523 273.621 482.196 277.144 483.813 281.177C484.595 283.281 485.011 285.503 485.042 287.748C485.061 289.823 484.897 291.895 484.552 293.941C483.846 298.032 482.402 301.961 480.291 305.536C478.213 309.016 475.676 312.2 472.748 315.003C467.016 320.562 460.394 324.81 453.637 328.415C446.87 331.959 439.899 335.097 432.76 337.815C418.603 343.291 404.183 347.697 389.823 352.057C375.462 356.417 361.095 360.611 347.036 365.462C340.007 367.891 333.06 370.486 326.295 373.405C319.566 376.244 313.063 379.593 306.844 383.423C300.773 387.271 295.131 391.767 291.005 397.198C286.827 402.459 284.519 408.961 284.444 415.68C284.427 422.652 285.857 429.552 288.645 435.942C291.521 442.406 295.429 448.36 300.214 453.571C305.09 458.902 310.495 463.722 316.347 467.957C319.266 470.122 322.298 472.159 325.398 474.105C328.497 476.051 331.658 477.877 334.871 479.687C341.312 483.24 347.949 486.477 354.714 489.441C361.479 492.406 368.365 495.159 375.327 497.739C389.257 502.846 403.504 507.184 417.872 511.069C432.24 514.954 446.781 518.326 461.382 521.366C490.601 527.401 520.128 532.146 549.769 536.023C579.409 539.9 609.178 542.888 638.992 545.234C653.901 546.406 668.821 547.411 683.755 548.251C698.673 549.074 713.652 549.76 728.51 550.137H728.563C729.288 550.136 730.006 550.281 730.675 550.562C731.344 550.843 731.949 551.256 732.456 551.775C732.963 552.294 733.36 552.91 733.625 553.586C733.89 554.261 734.017 554.983 733.998 555.708C733.98 556.434 733.816 557.148 733.517 557.809C733.217 558.47 732.789 559.064 732.256 559.557C731.723 560.049 731.097 560.43 730.415 560.677C729.733 560.923 729.008 561.031 728.284 560.992C713.199 560.517 698.19 559.733 683.167 558.82C668.143 557.907 653.164 556.798 638.185 555.531C608.22 552.996 578.316 549.798 548.502 545.724C518.688 541.651 488.979 536.732 459.504 530.426C444.775 527.265 430.09 523.757 415.541 519.744C400.992 515.731 386.542 511.22 372.347 505.917C365.243 503.269 358.198 500.44 351.267 497.317C344.336 494.194 337.48 490.844 330.813 487.11C327.479 485.24 324.176 483.301 320.948 481.219C317.72 479.137 314.522 476.987 311.437 474.671C305.16 470.066 299.371 464.831 294.158 459.048C288.82 453.156 284.474 446.435 281.291 439.148C278.111 431.724 276.508 423.719 276.585 415.642C276.627 411.439 277.393 407.274 278.848 403.331C280.288 399.435 282.324 395.786 284.881 392.513C289.912 386.041 296.27 381.13 302.847 377.004C309.417 372.992 316.288 369.496 323.399 366.548C330.421 363.531 337.548 360.951 344.706 358.522C359.036 353.671 373.479 349.522 387.839 345.268C402.199 341.013 416.499 336.713 430.354 331.448C437.235 328.858 443.957 325.863 450.484 322.479C456.925 319.069 463.087 315.146 468.163 310.273C470.666 307.897 472.837 305.195 474.619 302.239C476.357 299.351 477.556 296.172 478.156 292.855C478.446 291.203 478.59 289.53 478.586 287.853C478.576 286.34 478.306 284.839 477.787 283.418C476.585 280.455 474.611 277.868 472.07 275.927C469.326 273.774 466.327 271.97 463.14 270.556C459.849 269.065 456.465 267.788 453.011 266.731C445.956 264.616 438.774 262.953 431.508 261.752C416.808 259.376 401.996 257.757 387.13 256.902C372.227 255.944 357.278 255.393 342.315 255.107C312.38 254.496 282.407 254.692 252.412 254.752C237.411 254.752 222.41 254.752 207.393 254.563C192.377 254.375 177.345 253.952 162.299 252.821C154.757 252.24 147.26 251.478 139.748 250.158C135.955 249.512 132.208 248.618 128.533 247.48C126.636 246.888 124.788 246.152 123.004 245.277C121.066 244.365 119.308 243.11 117.815 241.573C116.992 240.695 116.337 239.672 115.885 238.556C115.661 237.969 115.502 237.359 115.409 236.738C115.326 236.21 115.274 235.674 115.243 235.139C115.134 232.98 115.452 230.822 116.179 228.787C117.627 224.759 120.289 221.545 123.125 218.837C125.981 216.205 129.077 213.846 132.372 211.791C135.6 209.724 138.926 207.876 142.29 206.126C155.767 199.171 169.788 193.747 183.311 187.455C186.683 185.886 190.031 184.257 193.282 182.507C196.527 180.806 199.65 178.88 202.627 176.744C204.071 175.698 205.435 174.546 206.707 173.296C207.922 172.116 208.954 170.761 209.769 169.275C210.135 168.576 210.411 167.834 210.591 167.065C210.681 166.696 210.742 166.32 210.772 165.941C210.772 165.752 210.772 165.556 210.772 165.375C210.779 165.277 210.779 165.179 210.772 165.081C210.587 164.525 210.244 164.035 209.784 163.67C209.179 163.143 208.516 162.685 207.808 162.305C206.245 161.471 204.612 160.774 202.928 160.223C201.209 159.642 199.444 159.137 197.649 158.677C194.081 157.764 190.439 157.04 186.773 156.413C179.442 155.131 172.028 154.188 164.599 153.396C149.734 151.797 134.785 150.756 119.837 149.918C104.888 149.081 89.9019 148.455 74.9232 148.017C59.9445 147.58 44.9583 147.263 29.9796 147.203C29.7098 147.171 29.4609 147.041 29.2803 146.838C29.0998 146.635 29 146.373 29 146.101C29 145.83 29.0998 145.567 29.2803 145.364C29.4609 145.161 29.7098 145.032 29.9796 145V145Z" fill="url(#paint0_linear)"/>
</g>
<path d="M48.223 62.76V75H14.887V62.76H25.111V36.696C24.727 37.272 24.079 37.92 23.167 38.64C22.255 39.312 21.199 39.984 19.999 40.656C18.847 41.28 17.671 41.808 16.471 42.24C15.271 42.672 14.191 42.888 13.231 42.888V30.36C14.527 30.36 15.847 30.024 17.191 29.352C18.583 28.68 19.855 27.912 21.007 27.048C22.207 26.184 23.167 25.392 23.887 24.672C24.655 23.952 25.063 23.568 25.111 23.52H39.079V62.76H48.223Z" fill="white"/>
<path d="M749.247 467.72C749.247 471.08 748.407 474.128 746.727 476.864C745.047 479.552 742.767 481.712 739.887 483.344C737.007 484.928 733.743 485.72 730.095 485.72C723.999 485.72 719.271 483.512 715.911 479.096C712.551 474.68 710.871 468.488 710.871 460.52C710.871 454.904 711.687 450.08 713.319 446.048C714.999 441.968 717.375 438.848 720.447 436.688C723.519 434.528 727.191 433.448 731.463 433.448C737.703 433.448 743.127 435.752 747.734 440.36L740.175 449.144C737.583 446.552 734.607 445.256 731.247 445.256C728.895 445.256 727.023 445.976 725.631 447.416C724.287 448.856 723.567 450.848 723.471 453.392C725.295 451.76 727.887 450.944 731.247 450.944C734.703 450.944 737.775 451.688 740.463 453.176C743.199 454.616 745.335 456.608 746.871 459.152C748.455 461.648 749.247 464.504 749.247 467.72ZM730.095 474.272C731.727 474.272 733.143 473.624 734.343 472.328C735.591 471.032 736.215 469.496 736.215 467.72C736.215 466.04 735.615 464.624 734.415 463.472C733.215 462.272 731.775 461.672 730.095 461.672C728.415 461.672 726.975 462.272 725.775 463.472C724.575 464.624 723.975 466.04 723.975 467.72C723.975 469.496 724.575 471.032 725.775 472.328C727.023 473.624 728.463 474.272 730.095 474.272Z" fill="white"/>
<path d="M478.824 208.928V199.136H460.32V186.896L483.144 157.808H492.504V186.896H498.84V199.136H492.504V208.928H478.824ZM473.784 186.896H480.408V178.256L473.784 186.896Z" fill="white"/>
<path d="M191.881 95C191.881 91.976 191.977 89.36 192.169 87.152C192.409 84.944 192.841 83 193.465 81.32C194.137 79.592 195.121 78.056 196.417 76.712C197.761 75.32 199.513 73.952 201.673 72.608C203.113 71.744 204.625 70.88 206.209 70.016C207.841 69.104 209.353 68.168 210.745 67.208C212.185 66.2 213.337 65.096 214.201 63.896C215.113 62.696 215.569 61.328 215.569 59.792C215.569 58.16 215.089 57.032 214.129 56.408C213.217 55.736 212.137 55.4 210.889 55.4C209.017 55.4 207.121 55.928 205.201 56.984C203.329 58.04 201.697 59.24 200.305 60.584L191.881 51.44C193.177 50 194.857 48.656 196.921 47.408C198.985 46.16 201.361 45.176 204.049 44.456C206.785 43.688 209.713 43.304 212.833 43.304C218.689 43.304 223.201 44.696 226.369 47.48C229.585 50.216 231.193 54.008 231.193 58.856C231.193 62.504 230.281 65.624 228.457 68.216C226.633 70.76 224.161 73.016 221.041 74.984C218.641 76.52 216.721 77.744 215.281 78.656C213.841 79.568 212.665 80.336 211.753 80.96C210.889 81.536 210.049 82.136 209.233 82.76H231.265V95H191.881Z" fill="white"/>
<path d="M114.698 357.36C107.498 357.36 101.666 355.44 97.2023 351.6L104.186 341.664C106.874 343.776 110.138 344.832 113.978 344.832C116.426 344.832 118.202 344.472 119.306 343.752C120.458 342.984 121.034 341.784 121.034 340.152C121.034 338.328 120.314 337.032 118.874 336.264C117.434 335.448 115.082 335.04 111.818 335.04H109.586V325.536H112.106C114.41 325.536 116.258 325.08 117.65 324.168C119.042 323.256 119.738 322.056 119.738 320.568C119.738 319.416 119.33 318.528 118.514 317.904C117.698 317.232 116.546 316.896 115.058 316.896C111.602 316.896 108.746 318.576 106.49 321.936L97.8503 311.784C99.0023 310.488 100.538 309.36 102.458 308.4C104.426 307.44 106.634 306.696 109.082 306.168C111.53 305.592 114.05 305.304 116.642 305.304C120.194 305.304 123.29 305.832 125.93 306.888C128.618 307.944 130.706 309.432 132.194 311.352C133.682 313.224 134.426 315.432 134.426 317.976C134.426 319.896 134.018 321.696 133.202 323.376C132.386 325.008 131.282 326.4 129.89 327.552C128.498 328.656 126.914 329.376 125.138 329.712C127.106 330.048 128.834 330.816 130.322 332.016C131.858 333.216 133.058 334.752 133.922 336.624C134.786 338.448 135.218 340.464 135.218 342.672C135.218 347.184 133.37 350.76 129.674 353.4C126.026 356.04 121.034 357.36 114.698 357.36Z" fill="white"/>
<path d="M278.559 540.648C274.815 540.648 271.431 539.952 268.407 538.56C265.431 537.12 263.127 535.128 261.495 532.584L268.983 523.944C270.375 525.432 271.911 526.608 273.591 527.472C275.319 528.288 276.999 528.696 278.631 528.696C280.407 528.696 281.799 528.216 282.807 527.256C283.815 526.296 284.319 525 284.319 523.368C284.319 521.784 283.863 520.512 282.951 519.552C282.039 518.592 280.839 518.112 279.351 518.112C278.343 518.112 277.407 518.352 276.543 518.832C275.727 519.264 275.103 519.864 274.671 520.632H262.935L268.983 488.808H294.615V501.264H278.847L278.055 506.808C278.055 506.808 278.319 506.76 278.847 506.664C279.375 506.52 280.215 506.448 281.367 506.448C284.679 506.448 287.607 507.168 290.151 508.608C292.695 510 294.687 511.944 296.127 514.44C297.615 516.936 298.359 519.816 298.359 523.08C298.359 526.536 297.519 529.584 295.839 532.224C294.159 534.864 291.831 536.928 288.855 538.416C285.927 539.904 282.495 540.648 278.559 540.648Z" fill="white"/>
<circle cx="479.5" cy="279.5" r="5.5" fill="#FBB040"/>
<circle cx="29.5" cy="145.5" r="5.5" fill="#FBB040"/>
<circle cx="729.5" cy="555.5" r="5.5" fill="#FBB040"/>
<circle cx="211.5" cy="165.5" r="5.5" fill="#FBB040"/>
<circle cx="117.5" cy="235.5" r="5.5" transform="rotate(-180 117.5 235.5)" fill="#FBB040"/>
<circle cx="280.5" cy="418.5" r="5.5" transform="rotate(-180 280.5 418.5)" fill="#FBB040"/>
<line opacity="0.75" x1="29.5" y1="132.5" x2="29.5" y2="83.5" stroke="white" stroke-linecap="round" stroke-dasharray="6 6"/>
<line opacity="0.75" x1="729.5" y1="542.5" x2="729.5" y2="493.5" stroke="white" stroke-linecap="round" stroke-dasharray="6 6"/>
<line opacity="0.75" x1="479.5" y1="266.5" x2="479.5" y2="217.5" stroke="white" stroke-linecap="round" stroke-dasharray="6 6"/>
<line opacity="0.75" x1="211.5" y1="152.5" x2="211.5" y2="103.5" stroke="white" stroke-linecap="round" stroke-dasharray="6 6"/>
<line opacity="0.75" x1="117.5" y1="248.5" x2="117.5" y2="297.5" stroke="white" stroke-linecap="round" stroke-dasharray="6 6"/>
<line opacity="0.75" x1="280.5" y1="431.5" x2="280.5" y2="480.5" stroke="white" stroke-linecap="round" stroke-dasharray="6 6"/>
<defs>
<filter id="filter0_d" x="9" y="145" width="745" height="456" filterUnits="userSpaceOnUse" color-interpolation-filters="sRGB">
<feFlood flood-opacity="0" result="BackgroundImageFix"/>
<feColorMatrix in="SourceAlpha" type="matrix" values="0 0 0 0 0 0 0 0 0 0 0 0 0 0 0 0 0 0 127 0" result="hardAlpha"/>
<feOffset dy="20"/>
<feGaussianBlur stdDeviation="10"/>
<feColorMatrix type="matrix" values="0 0 0 0 0 0 0 0 0 0 0 0 0 0 0 0 0 0 0.15 0"/>
<feBlend mode="normal" in2="BackgroundImageFix" result="effect1_dropShadow"/>
<feBlend mode="normal" in="SourceGraphic" in2="effect1_dropShadow" result="shape"/>
</filter>
<linearGradient id="paint0_linear" x1="793.773" y1="524.444" x2="292.738" y2="-127.553" gradientUnits="userSpaceOnUse">
<stop offset="0.556959" stop-color="#10F09F"/>
<stop offset="1" stop-color="white"/>
</linearGradient>
</defs>
</svg>
